<?xml version="1.0" standalone="no"?>
<!DOCTYPE svg PUBLIC "-//W3C//DTD SVG 20010904//EN"
 "http://www.w3.org/TR/2001/REC-SVG-20010904/DTD/svg10.dtd">
<svg version="1.0" xmlns="http://www.w3.org/2000/svg"
 width="200.000000pt" height="200.000000pt" viewBox="0 0 200.000000 200.000000"
 preserveAspectRatio="xMidYMid meet">

<g transform="translate(0.000000,200.000000) scale(0.100000,-0.100000)"
fill="#2A59FE" stroke="none">
<path d="M326 1795 c-152 -54 -206 -236 -105 -358 108 -130 319 -100 384 56
l15 37 593 0 c448 0 596 3 605 12 15 15 15 61 0 76 -9 9 -157 12 -605 12
l-593 0 -16 40 c-21 53 -92 115 -149 129 -56 14 -81 13 -129 -4z m118 -99 c51
-21 76 -60 76 -118 0 -43 -5 -55 -33 -83 -41 -41 -90 -52 -140 -31 -98 40
-101 189 -4 231 41 18 60 18 101 1z"/>
<path d="M917 1216 c-60 -22 -97 -57 -128 -123 l-20 -43 -287 0 c-211 0 -291
-3 -300 -12 -19 -19 -15 -66 7 -78 12 -6 126 -10 300 -10 l281 0 15 -37 c42
-100 149 -155 255 -132 69 15 127 60 153 120 l22 49 293 0 c278 0 293 1 312
20 24 24 24 29 4 58 -15 22 -17 22 -310 22 l-294 0 -16 40 c-9 22 -36 57 -60
78 -67 60 -147 76 -227 48z m134 -101 c97 -51 89 -190 -13 -229 -58 -22 -112
-6 -145 43 -74 110 41 246 158 186z"/>
<path d="M1550 641 c-74 -24 -129 -73 -157 -138 l-13 -33 -593 0 c-448 0 -596
-3 -605 -12 -19 -19 -15 -66 7 -78 13 -6 222 -10 610 -10 l589 0 7 -28 c3 -16
20 -45 36 -65 81 -99 223 -112 319 -29 124 106 102 299 -43 373 -44 23 -120
32 -157 20z m147 -135 c42 -45 45 -105 10 -157 -33 -49 -87 -65 -145 -43 -100
38 -112 161 -22 222 52 35 113 26 157 -22z"/>
</g>
</svg>
